<svg width="18" height="18" viewBox="0 0 18 18" fill="none" xmlns="http://www.w3.org/2000/svg">
<path d="M6.75 16C7.44036 16 8 15.4404 8 14.75C8 14.0596 7.44036 13.5 6.75 13.5C6.05964 13.5 5.5 14.0596 5.5 14.75C5.5 15.4404 6.05964 16 6.75 16Z" fill="#019DEA"/>
<path d="M13.25 16C13.9404 16 14.5 15.4404 14.5 14.75C14.5 14.0596 13.9404 13.5 13.25 13.5C12.5596 13.5 12 14.0596 12 14.75C12 15.4404 12.5596 16 13.25 16Z" fill="#019DEA"/>
<path d="M16.5498 3.19575C16.5032 3.13524 16.4434 3.0862 16.3749 3.0524C16.3064 3.0186 16.2311 3.00093 16.1548 3.00075H4.60475L4.37975 2.28575C4.35503 2.20897 4.31211 2.13932 4.25465 2.08273C4.19719 2.02614 4.12689 1.98429 4.04975 1.96075L1.99975 1.33075C1.93672 1.31138 1.87048 1.30461 1.80483 1.31084C1.73919 1.31706 1.67541 1.33616 1.61714 1.36704C1.49946 1.42939 1.41137 1.53594 1.37225 1.66325C1.33313 1.79055 1.34618 1.92818 1.40854 2.04586C1.4709 2.16354 1.57745 2.25163 1.70475 2.29075L3.49975 2.84075L5.78975 10.0757L4.97475 10.7457L4.90975 10.8107C4.7082 11.0441 4.59401 11.3403 4.58671 11.6486C4.57942 11.9569 4.67947 12.2581 4.86975 12.5007C5.00603 12.6665 5.1792 12.798 5.37542 12.8848C5.57164 12.9717 5.78545 13.0113 5.99975 13.0007H14.3448C14.4774 13.0007 14.6045 12.9481 14.6983 12.8543C14.7921 12.7605 14.8448 12.6334 14.8448 12.5007C14.8448 12.3681 14.7921 12.241 14.6983 12.1472C14.6045 12.0534 14.4774 12.0007 14.3448 12.0007H5.91975C5.86217 11.9988 5.80608 11.982 5.75688 11.952C5.70768 11.922 5.66705 11.8799 5.6389 11.8296C5.61075 11.7794 5.59604 11.7227 5.59619 11.6651C5.59634 11.6075 5.61134 11.5509 5.63975 11.5007L6.84475 10.5007H14.5598C14.674 10.5041 14.7859 10.4682 14.8769 10.399C14.9678 10.3299 15.0324 10.2317 15.0598 10.1207L16.6598 3.62075C16.675 3.5462 16.673 3.46918 16.6539 3.39553C16.6348 3.32188 16.5992 3.25355 16.5498 3.19575Z" fill="#019DEA"/>
</svg>
