<svg width="19" height="19" viewBox="0 0 19 19" fill="none" xmlns="http://www.w3.org/2000/svg">
<g clip-path="url(#clip0_723_17328)">
<path d="M8.51323 10.6868C8.51323 10.8629 8.45749 11.0351 8.35307 11.1816C8.24865 11.328 8.10022 11.4422 7.92657 11.5096C7.75292 11.577 7.56184 11.5946 7.3775 11.5603C7.19315 11.5259 7.02382 11.4411 6.89091 11.3165C6.758 11.192 6.66749 11.0333 6.63082 10.8605C6.59415 10.6878 6.61297 10.5087 6.6849 10.3459C6.75683 10.1832 6.87864 10.0441 7.03492 9.94624C7.1912 9.84837 7.37494 9.79614 7.5629 9.79614C7.81494 9.79614 8.05666 9.88997 8.23488 10.057C8.41311 10.224 8.51323 10.4506 8.51323 10.6868ZM12.6313 9.79614C12.4434 9.79614 12.2596 9.84837 12.1034 9.94624C11.9471 10.0441 11.8253 10.1832 11.7533 10.3459C11.6814 10.5087 11.6626 10.6878 11.6993 10.8605C11.7359 11.0333 11.8264 11.192 11.9594 11.3165C12.0923 11.4411 12.2616 11.5259 12.4459 11.5603C12.6303 11.5946 12.8214 11.577 12.995 11.5096C13.1687 11.4422 13.3171 11.328 13.4215 11.1816C13.5259 11.0351 13.5817 10.8629 13.5817 10.6868C13.5817 10.4506 13.4815 10.224 13.3033 10.057C13.1251 9.88997 12.8834 9.79614 12.6313 9.79614ZM19.1578 13.8436C17.8449 14.9129 16.08 15.7235 14.0537 16.1878C13.9548 16.2105 13.8533 16.222 13.7515 16.2221C13.5169 16.2217 13.287 16.1599 13.0879 16.0437C12.8888 15.9275 12.7283 15.7614 12.6245 15.5642L11.873 14.1555C11.2834 14.2181 10.6905 14.2494 10.0971 14.2493C9.50376 14.2493 8.91086 14.2181 8.32126 14.1555L7.56971 15.5642C7.46594 15.7614 7.30544 15.9275 7.10631 16.0437C6.90719 16.1599 6.67737 16.2217 6.44277 16.2221C6.34093 16.222 6.23947 16.2105 6.14056 16.1878C4.11422 15.7235 2.34929 14.9129 1.03664 13.8437C0.851755 13.6934 0.716941 13.4964 0.64831 13.2763C0.579678 13.0562 0.580133 12.8222 0.649619 12.6023L3.34025 4.19722C3.39414 4.02779 3.48783 3.87181 3.61444 3.74074C3.74105 3.60966 3.89737 3.50682 4.07193 3.43975C4.86663 3.13478 5.68854 2.89623 6.52806 2.72688C6.83377 2.66393 7.15351 2.70929 7.42564 2.8542C7.69778 2.99912 7.90302 3.23333 8.00179 3.51167L8.47007 4.82823C9.55191 4.72299 10.6425 4.72299 11.7243 4.82823L12.1926 3.51167C12.2914 3.23336 12.4966 2.99918 12.7687 2.85427C13.0409 2.70936 13.3606 2.66398 13.6663 2.72688C14.5059 2.89623 15.3279 3.1348 16.1226 3.43982C16.2972 3.50689 16.4534 3.60973 16.58 3.74079C16.7066 3.87185 16.8003 4.02781 16.8541 4.19722L19.5447 12.6023C19.6142 12.8222 19.6147 13.0561 19.546 13.2763C19.4774 13.4964 19.3426 13.6933 19.1578 13.8436ZM18.3264 12.9474L15.6404 4.53841C14.9146 4.25966 14.1638 4.04176 13.3969 3.88729L12.9983 5.00383C13.5189 5.09685 14.0329 5.21979 14.5373 5.37196C14.6971 5.42057 14.8298 5.52669 14.9062 5.66699C14.9825 5.80728 14.9963 5.97025 14.9444 6.12005C14.8925 6.26984 14.7793 6.39419 14.6296 6.46574C14.4799 6.53729 14.306 6.55018 14.1462 6.50157C12.9313 6.13196 11.5312 5.93676 10.0971 5.93676C8.66338 5.93676 7.26315 6.13196 6.04791 6.50157C5.88807 6.55016 5.71418 6.53725 5.5645 6.46569C5.41481 6.39413 5.30159 6.26977 5.24975 6.11997C5.1979 5.97018 5.21167 5.80721 5.28803 5.66693C5.36439 5.52666 5.49709 5.42055 5.65692 5.37196C6.16164 5.21974 6.67587 5.09675 7.1967 5.00369L6.79962 3.88729C6.03241 4.04139 5.28129 4.25897 4.55509 4.53744L1.86327 12.9435C3.02886 13.8931 4.61037 14.6147 6.4415 15.0342L7.01107 13.9601C6.55352 13.8722 6.10146 13.7608 5.65692 13.6265C5.49844 13.5769 5.36729 13.4706 5.29202 13.3308C5.21675 13.191 5.20346 13.029 5.25504 12.88C5.30662 12.7311 5.4189 12.6073 5.56742 12.5355C5.71595 12.4638 5.8887 12.45 6.04807 12.497C7.26291 12.8665 8.66307 13.0618 10.0971 13.0618C11.5311 13.0618 12.9312 12.8666 14.1462 12.497C14.306 12.4484 14.4799 12.4613 14.6296 12.5328C14.7793 12.6044 14.8925 12.7287 14.9444 12.8785C14.9962 13.0283 14.9825 13.1913 14.9061 13.3316C14.8298 13.4719 14.6971 13.578 14.5372 13.6266C14.0934 13.7606 13.642 13.8719 13.1852 13.9597L13.7578 15.0331C15.5839 14.6147 17.1654 13.8931 18.3264 12.9474V12.9474Z" fill="#D0D0D0"/>
</g>
<defs>
<clipPath id="clip0_723_17328">
<rect width="19" height="19" fill="white"/>
</clipPath>
</defs>
</svg>
