<svg width="20" height="20" viewBox="0 0 20 20" fill="none" xmlns="http://www.w3.org/2000/svg">
<path d="M1.90479 7.56993V13.7134C1.90479 14.3701 2.18908 14.9999 2.69513 15.4643C3.20118 15.9287 3.88753 16.1895 4.6032 16.1895H15.3968C16.1125 16.1895 16.7989 15.9287 17.3049 15.4643C17.811 14.9999 18.0953 14.3701 18.0953 13.7134V6.28478C18.0953 5.62806 17.811 4.99823 17.3049 4.53385C16.7989 4.06948 16.1125 3.80859 15.3968 3.80859H4.6032C3.88753 3.80859 3.20118 4.06948 2.69513 4.53385C2.18908 4.99823 1.90479 5.62806 1.90479 6.28478V7.56993ZM4.6032 5.04669H15.3968C15.7547 5.04669 16.0979 5.17713 16.3509 5.40932C16.6039 5.64151 16.7461 5.95642 16.7461 6.28478V7.20097L10 10.5339L3.25399 7.20097V6.28478C3.25399 5.95642 3.39614 5.64151 3.64916 5.40932C3.90219 5.17713 4.24537 5.04669 4.6032 5.04669V5.04669ZM3.25399 8.60745L9.68026 11.7819C9.77854 11.8305 9.88841 11.8559 10 11.8559C10.1116 11.8559 10.2215 11.8305 10.3198 11.7819L16.7461 8.60745V13.7134C16.7461 14.0417 16.6039 14.3566 16.3509 14.5888C16.0979 14.821 15.7547 14.9515 15.3968 14.9515H4.6032C4.24537 14.9515 3.90219 14.821 3.64916 14.5888C3.39614 14.3566 3.25399 14.0417 3.25399 13.7134V8.60745Z" fill="#D0D0D0"/>
</svg>
