<svg width="14" height="16" viewBox="0 0 14 16" fill="none" xmlns="http://www.w3.org/2000/svg">
<path d="M13.339 13.8517C13.2934 13.9909 13.1846 14.1453 13.0062 14.1973C12.8774 14.2349 8.61583 15.4693 8.48463 15.5037C8.10943 15.6037 7.84863 15.5301 7.67743 15.3789C7.41663 15.1493 4.40303 13.0989 0.601431 12.9053C0.195031 12.8853 0.394231 11.3445 1.55583 11.3445C2.35183 11.3445 4.67903 11.9229 4.95983 11.6413C5.17663 11.4237 5.27503 10.1381 4.37023 7.89495L2.55023 3.38535C2.47695 3.18186 2.48538 2.95789 2.57376 2.76049C2.66213 2.56309 2.82357 2.40762 3.02416 2.32674C3.22475 2.24586 3.44888 2.24587 3.64946 2.32676C3.85004 2.40766 4.01147 2.56314 4.09983 2.76055L5.68863 6.69575C5.84303 7.07975 6.03343 7.22535 6.24063 7.14535C6.42543 7.07495 6.46383 6.95175 6.35183 6.57815L4.71503 1.75575C4.67967 1.65195 4.66511 1.54221 4.67219 1.43278C4.67927 1.32336 4.70785 1.21641 4.75629 1.11804C4.80474 1.01966 4.87209 0.931807 4.95451 0.859484C5.03693 0.787162 5.1328 0.731794 5.23663 0.696546C5.34047 0.660953 5.45031 0.646218 5.55986 0.653187C5.6694 0.660156 5.77649 0.688691 5.87498 0.737155C5.97347 0.785619 6.06142 0.853057 6.13378 0.935599C6.20614 1.01814 6.26148 1.11416 6.29663 1.21815L7.85343 5.80375C7.99103 6.20695 8.13663 6.41815 8.36703 6.32055C8.50543 6.26215 8.49583 6.05015 8.45903 5.86535L7.36623 1.48855C7.33619 1.38093 7.32802 1.26839 7.34221 1.15756C7.3564 1.04674 7.39266 0.939883 7.44884 0.84331C7.50503 0.746738 7.58001 0.662408 7.66934 0.595304C7.75868 0.528201 7.86056 0.479685 7.96896 0.452625C8.07736 0.425564 8.19009 0.420508 8.30048 0.437754C8.41087 0.455 8.51668 0.494199 8.61167 0.553035C8.70665 0.611871 8.78888 0.689149 8.85349 0.780303C8.91809 0.871457 8.96378 0.974637 8.98783 1.08375L9.99583 5.11735C10.143 5.71015 10.2782 5.92375 10.5126 5.86535C10.7518 5.80695 10.7406 5.61015 10.7078 5.44775L10.0102 1.98535C9.98173 1.79273 10.0283 1.59651 10.1402 1.43719C10.2521 1.27787 10.421 1.16759 10.6118 1.1291C10.8027 1.09062 11.0011 1.12687 11.166 1.23037C11.331 1.33387 11.4499 1.49673 11.4982 1.68535L12.2566 5.45415L12.2574 5.45495V5.45575L12.7118 7.71575C12.811 8.14215 12.9246 8.54375 13.0718 8.93735C13.9398 11.2485 13.487 13.3885 13.339 13.8517Z" fill="#019DEA"/>
</svg>
