<svg width="21" height="18" viewBox="0 0 21 18" fill="none" xmlns="http://www.w3.org/2000/svg">
<path d="M18.585 1.71446C18.0972 1.24995 17.5182 0.881521 16.8808 0.630242C16.2435 0.378962 15.5605 0.249754 14.8707 0.25C14.1809 0.250247 13.498 0.379944 12.8608 0.631679C12.2237 0.883414 11.6449 1.25225 11.1576 1.71712L10.5214 2.3304L9.89048 1.71844L9.88637 1.71454C9.39887 1.25024 8.82011 0.881941 8.18315 0.630665C7.54618 0.37939 6.86349 0.25006 6.17405 0.25006C5.48461 0.25006 4.80191 0.37939 4.16495 0.630665C3.52799 0.881941 2.94923 1.25024 2.46173 1.71454L2.17831 1.98446C1.19375 2.92214 0.640625 4.19391 0.640625 5.51999C0.640625 6.84607 1.19375 8.11783 2.17831 9.05551L9.65845 16.1794L10.5032 17.0223L10.5233 17.0031L10.5452 17.0239L11.3366 16.2286L18.8684 9.0554C19.8515 8.11697 20.4036 6.84548 20.4036 5.51987C20.4036 4.19426 19.8515 2.92277 18.8684 1.98434L18.585 1.71446ZM17.9401 8.17153L10.5233 15.2353L3.10633 8.17153C2.36791 7.46827 1.95307 6.51445 1.95307 5.51989C1.95307 4.52533 2.36791 3.57151 3.10633 2.86825L3.38979 2.59833C4.12785 1.89542 5.12876 1.50036 6.17253 1.49999C7.2163 1.49961 8.21752 1.89395 8.95614 2.59634L10.5185 4.11145L12.0884 2.59833C12.454 2.2501 12.8881 1.97388 13.3658 1.78542C13.8435 1.59697 14.3555 1.49997 14.8726 1.49997C15.3897 1.49997 15.9017 1.59697 16.3794 1.78542C16.8572 1.97388 17.2912 2.2501 17.6569 2.59833L17.9403 2.86821C18.6776 3.57205 19.0916 4.52568 19.0916 5.5199C19.0916 6.51412 18.6775 7.46773 17.9401 8.17153Z" fill="#B1BBD4"/>
</svg>
