<svg width="18" height="18" viewBox="0 0 18 18" fill="none" xmlns="http://www.w3.org/2000/svg">
<path d="M9 12C9.79565 12 10.5587 11.6839 11.1213 11.1213C11.6839 10.5587 12 9.79565 12 9C12 8.20435 11.6839 7.44129 11.1213 6.87868C10.5587 6.31607 9.79565 6 9 6C8.20435 6 7.44129 6.31607 6.87868 6.87868C6.31607 7.44129 6 8.20435 6 9C6 9.79565 6.31607 10.5587 6.87868 11.1213C7.44129 11.6839 8.20435 12 9 12V12Z" stroke="#D0D0D0" stroke-width="1.2" stroke-linecap="round" stroke-linejoin="round"/>
<path d="M2.25 12V6C2.25 5.00544 2.64509 4.05161 3.34835 3.34835C4.05161 2.64509 5.00544 2.25 6 2.25H12C12.9946 2.25 13.9484 2.64509 14.6517 3.34835C15.3549 4.05161 15.75 5.00544 15.75 6V12C15.75 12.9946 15.3549 13.9484 14.6517 14.6517C13.9484 15.3549 12.9946 15.75 12 15.75H6C5.00544 15.75 4.05161 15.3549 3.34835 14.6517C2.64509 13.9484 2.25 12.9946 2.25 12Z" stroke="#D0D0D0" stroke-width="1.2"/>
<path d="M13.125 4.88325L13.1325 4.875" stroke="#D0D0D0" stroke-width="1.5" stroke-linecap="round" stroke-linejoin="round"/>
</svg>
