<svg width="18" height="18" viewBox="0 0 18 18" fill="none" xmlns="http://www.w3.org/2000/svg">
<g clip-path="url(#clip0_723_17324)">
<path d="M6.53111 11.9839C6.29625 11.9839 6.06666 11.9143 5.87137 11.7838C5.67609 11.6533 5.52388 11.4679 5.43401 11.2509C5.34413 11.0339 5.32061 10.7951 5.36643 10.5648C5.41225 10.3344 5.52535 10.1228 5.69142 9.95674C5.8575 9.79066 6.06909 9.67756 6.29944 9.63174C6.52979 9.58592 6.76856 9.60944 6.98555 9.69932C7.20254 9.7892 7.388 9.9414 7.51848 10.1367C7.64897 10.332 7.71861 10.5616 7.71861 10.7964C7.71826 11.1113 7.59303 11.4131 7.37041 11.6357C7.14779 11.8583 6.84595 11.9836 6.53111 11.9839ZM12.4686 9.60893C12.2337 9.60893 12.0042 9.67857 11.8089 9.80906C11.6136 9.93954 11.4614 10.125 11.3715 10.342C11.2816 10.559 11.2581 10.7977 11.3039 11.0281C11.3497 11.2584 11.4628 11.47 11.6289 11.6361C11.795 11.8022 12.0066 11.9153 12.2369 11.9611C12.4673 12.0069 12.7061 11.9834 12.923 11.8935C13.14 11.8037 13.3255 11.6515 13.456 11.4562C13.5865 11.2609 13.6561 11.0313 13.6561 10.7964C13.6558 10.4816 13.5305 10.1798 13.3079 9.95713C13.0853 9.7345 12.7834 9.60928 12.4686 9.60893ZM11.6786 13.5346C11.0048 13.8817 10.2579 14.0628 9.4999 14.0628C8.74194 14.0628 7.99496 13.8817 7.32117 13.5346C7.18147 13.4643 7.0197 13.4521 6.87099 13.5004C6.72228 13.5487 6.59863 13.6537 6.5269 13.7927C6.45516 13.9316 6.44113 14.0932 6.48784 14.2424C6.53456 14.3917 6.63825 14.5164 6.77641 14.5897C7.61867 15.0236 8.55243 15.25 9.4999 15.25C10.4474 15.25 11.3811 15.0236 12.2234 14.5897C12.2935 14.5544 12.356 14.5056 12.4071 14.446C12.4583 14.3865 12.4971 14.3173 12.5214 14.2427C12.5456 14.168 12.5549 14.0893 12.5485 14.011C12.5421 13.9328 12.5203 13.8566 12.4843 13.7868C12.4483 13.717 12.3988 13.6551 12.3386 13.6046C12.2785 13.5541 12.209 13.516 12.1341 13.4926C12.0592 13.4691 11.9803 13.4607 11.9021 13.468C11.824 13.4752 11.748 13.4978 11.6786 13.5346ZM17.6383 10.4662C17.7536 10.8629 17.8122 11.2739 17.8124 11.6871C17.8124 13.315 16.9186 14.8304 15.2958 15.9539C13.7396 17.0312 11.6812 17.6246 9.49986 17.6246C7.31857 17.6246 5.26012 17.0312 3.7039 15.9539C2.0811 14.8303 1.18736 13.315 1.18736 11.6871C1.18754 11.2739 1.24613 10.8629 1.3614 10.4662C0.901429 10.0443 0.626024 9.45838 0.594777 8.83506C0.56353 8.21173 0.778954 7.60117 1.19444 7.13547C1.60992 6.66976 2.19206 6.38637 2.8149 6.3466C3.43773 6.30682 4.05119 6.51387 4.52253 6.92295C5.81735 6.23509 7.37401 5.83149 8.99488 5.76165L9.50795 2.6832C9.53364 2.52916 9.61899 2.39143 9.7455 2.29986C9.87201 2.20829 10.0295 2.17024 10.1839 2.19395L12.3839 2.53239C12.5826 2.16223 12.9057 1.87423 13.2963 1.71929C13.6868 1.56435 14.1195 1.55245 14.5179 1.68569C14.9164 1.81894 15.2549 2.08875 15.4736 2.44743C15.6924 2.80612 15.7773 3.23059 15.7134 3.64582C15.6494 4.06106 15.4407 4.44032 15.1242 4.71659C14.8077 4.99285 14.4037 5.14833 13.9836 5.15554C13.5636 5.16275 13.1545 5.02124 12.8287 4.756C12.5028 4.49076 12.2813 4.11888 12.2031 3.70609L10.5829 3.45679L10.1972 5.77063C11.7488 5.86318 13.2337 6.26225 14.4772 6.92295C14.9485 6.51387 15.562 6.30682 16.1848 6.3466C16.8077 6.38637 17.3898 6.66976 17.8053 7.13547C18.2208 7.60117 18.4362 8.21173 18.4049 8.83506C18.3737 9.45838 18.0983 10.0443 17.6383 10.4662V10.4662ZM13.3592 3.37455C13.3592 3.49198 13.3941 3.60678 13.4593 3.70442C13.5245 3.80206 13.6173 3.87817 13.7258 3.92311C13.8343 3.96804 13.9536 3.9798 14.0688 3.95689C14.184 3.93398 14.2898 3.87743 14.3728 3.7944C14.4559 3.71136 14.5124 3.60556 14.5353 3.49039C14.5582 3.37521 14.5465 3.25583 14.5015 3.14733C14.4566 3.03884 14.3805 2.94611 14.2829 2.88087C14.1852 2.81562 14.0704 2.7808 13.953 2.7808C13.7956 2.781 13.6447 2.84362 13.5334 2.95492C13.4221 3.06623 13.3594 3.21714 13.3592 3.37455ZM17.2186 8.7183C17.2186 8.46755 17.1392 8.22324 16.9918 8.02038C16.8444 7.81752 16.6366 7.66651 16.3982 7.589C16.1597 7.51148 15.9028 7.51144 15.6643 7.58887C15.4258 7.6663 15.218 7.81724 15.0705 8.02005C14.9848 8.13758 14.859 8.21959 14.717 8.25053C14.5749 8.28147 14.4264 8.2592 14.2996 8.18793C14.2889 8.18195 14.2785 8.17566 14.2683 8.16908C12.9547 7.37472 11.2628 6.93735 9.50157 6.93705L9.5006 6.93713H9.49912C7.73754 6.9372 6.04528 7.37457 4.73153 8.16908C4.72277 8.17472 4.71387 8.18014 4.70474 8.18541C4.57782 8.2583 4.42846 8.28173 4.28532 8.25121C4.14218 8.22069 4.01537 8.13837 3.92923 8.02005C3.82548 7.87734 3.69123 7.75955 3.53626 7.67522C3.38128 7.59089 3.20946 7.54215 3.03328 7.53254C2.85711 7.52294 2.68101 7.5527 2.51778 7.61968C2.35455 7.68665 2.2083 7.78915 2.08964 7.91973C1.97099 8.05031 1.88292 8.20569 1.83184 8.37456C1.78075 8.54344 1.76794 8.72158 1.79432 8.89603C1.8207 9.07048 1.88562 9.23686 1.98436 9.38308C2.0831 9.5293 2.21318 9.65168 2.36514 9.74133C2.48932 9.81483 2.58249 9.93104 2.62722 10.0682C2.67195 10.2054 2.6652 10.3542 2.60821 10.4868C2.45498 10.8684 2.37579 11.2758 2.37486 11.6871C2.37486 12.9139 3.08692 14.0823 4.37988 14.9775C5.73942 15.9187 7.55771 16.4371 9.49986 16.4371C11.442 16.4371 13.2603 15.9187 14.6198 14.9775C15.9128 14.0824 16.6249 12.9138 16.6249 11.6871C16.6239 11.2747 16.5443 10.8662 16.3903 10.4837C16.3343 10.3513 16.3282 10.2032 16.3731 10.0667C16.418 9.93014 16.5109 9.81456 16.6346 9.74133C16.8121 9.63584 16.9592 9.48614 17.0615 9.30684C17.1639 9.12754 17.218 8.92476 17.2186 8.7183Z" fill="#D0D0D0"/>
</g>
<defs>
<clipPath id="clip0_723_17324">
<rect width="18" height="18" fill="white"/>
</clipPath>
</defs>
</svg>
