<svg width="15" height="15" viewBox="0 0 15 15" fill="none" xmlns="http://www.w3.org/2000/svg">
<g clip-path="url(#clip0_723_17223)">
<path d="M14.8702 14.1943L10.3846 9.60938C11.2788 8.52539 11.726 7.27539 11.726 5.85938C11.726 4.79492 11.4688 3.81348 10.9543 2.91504C10.4399 2.0166 9.73798 1.30615 8.84856 0.783691C7.95913 0.26123 6.99279 0 5.94952 0C4.90625 0 3.94231 0.26123 3.05769 0.783691C2.17308 1.30615 1.47356 2.0166 0.959135 2.91504C0.444712 3.81348 0.1875 4.79492 0.1875 5.85938C0.1875 6.92383 0.444712 7.90527 0.959135 8.80371C1.47356 9.70215 2.17308 10.4126 3.05769 10.9351C3.94231 11.4575 4.90865 11.7188 5.95673 11.7188C7.38942 11.7188 8.64904 11.2402 9.73558 10.2832L14.2067 14.8535C14.3029 14.9512 14.4135 15 14.5385 15C14.6635 15 14.7716 14.9536 14.863 14.8608C14.9543 14.7681 15 14.6558 15 14.5239C15 14.3921 14.9567 14.2822 14.8702 14.1943ZM5.95673 10.7959C5.07212 10.7959 4.25721 10.5737 3.51202 10.1294C2.76683 9.68506 2.17788 9.08447 1.74519 8.32764C1.3125 7.5708 1.09615 6.74805 1.09615 5.85938C1.09615 4.9707 1.3125 4.14795 1.74519 3.39111C2.17788 2.63428 2.76683 2.03369 3.51202 1.58936C4.25721 1.14502 5.06971 0.922852 5.94952 0.922852C6.82933 0.922852 7.64183 1.14502 8.38702 1.58936C9.13221 2.03369 9.72115 2.63428 10.1538 3.39111C10.5865 4.14795 10.8029 4.9707 10.8029 5.85938C10.8029 6.24023 10.7596 6.61621 10.6731 6.9873C10.5865 7.3584 10.4639 7.70508 10.3053 8.02734C10.1466 8.34961 9.95673 8.65479 9.73558 8.94287C9.51442 9.23096 9.26442 9.4873 8.98558 9.71191C8.70673 9.93652 8.40865 10.1294 8.09135 10.2905C7.77404 10.4517 7.43269 10.5762 7.06731 10.6641C6.70192 10.752 6.33173 10.7959 5.95673 10.7959Z" fill="#B1BBD4"/>
</g>
<defs>
<clipPath id="clip0_723_17223">
<rect width="15" height="15" fill="white"/>
</clipPath>
</defs>
</svg>
