<svg width="11" height="11" viewBox="0 0 11 11" fill="none" xmlns="http://www.w3.org/2000/svg">
<path d="M7.06941 1.96542C7.06938 1.50045 7.23421 1.05054 7.5346 0.69563C7.83499 0.340722 8.25148 0.103812 8.71006 0.027004C9.16864 -0.0498039 9.6396 0.0384656 10.0392 0.276125C10.4389 0.513785 10.7413 0.885439 10.8928 1.32504C11.0443 1.76464 11.035 2.24371 10.8666 2.6771C10.6982 3.1105 10.3815 3.47015 9.973 3.69214C9.56445 3.91413 9.09042 3.98408 8.63517 3.88955C8.17991 3.79502 7.77291 3.54215 7.48651 3.17586L3.86069 4.98877C3.95017 5.32247 3.95017 5.67385 3.86069 6.00755L7.48808 7.82203C7.78871 7.43935 8.22072 7.18193 8.70036 7.09967C9.18 7.01742 9.67309 7.11619 10.0841 7.37683C10.495 7.63748 10.7945 8.04143 10.9246 8.51037C11.0546 8.97932 11.0059 9.47984 10.7879 9.91491C10.5699 10.35 10.1981 10.6886 9.74458 10.8651C9.29108 11.0416 8.78819 11.0435 8.33341 10.8703C7.87863 10.6971 7.50436 10.3612 7.28315 9.92776C7.06195 9.49429 7.00957 8.99414 7.13618 8.52425L3.50879 6.70977C3.25666 7.0312 2.91055 7.26598 2.51869 7.38144C2.12683 7.49689 1.70871 7.48725 1.32258 7.35388C0.936454 7.2205 0.601533 6.97002 0.364469 6.63732C0.127405 6.30463 0 5.90628 0 5.49776C0 5.08925 0.127405 4.6909 0.364469 4.35821C0.601533 4.02551 0.936454 3.77503 1.32258 3.64165C1.70871 3.50828 2.12683 3.49864 2.51869 3.61409C2.91055 3.72954 3.25666 3.96433 3.50879 4.28576L7.13539 2.47363C7.09134 2.30783 7.06916 2.13698 7.06941 1.96542ZM9.03471 0.785616C8.72191 0.785616 8.42192 0.909875 8.20074 1.13106C7.97955 1.35224 7.85529 1.65223 7.85529 1.96503C7.85529 2.27783 7.97955 2.57782 8.20074 2.799C8.42192 3.02018 8.72191 3.14444 9.03471 3.14444C9.34751 3.14444 9.64749 3.02018 9.86868 2.799C10.0899 2.57782 10.2141 2.27783 10.2141 1.96503C10.2141 1.65223 10.0899 1.35224 9.86868 1.13106C9.64749 0.909875 9.34751 0.785616 9.03471 0.785616ZM9.03314 7.85502C8.72065 7.85502 8.42096 7.97915 8.2 8.20011C7.97904 8.42107 7.8549 8.72076 7.8549 9.03325C7.8549 9.34574 7.97904 9.64543 8.2 9.86639C8.42096 10.0873 8.72065 10.2115 9.03314 10.2115C9.34562 10.2115 9.64531 10.0873 9.86627 9.86639C10.0872 9.64543 10.2114 9.34574 10.2114 9.03325C10.2114 8.72076 10.0872 8.42107 9.86627 8.20011C9.64531 7.97915 9.34562 7.85502 9.03314 7.85502ZM0.785501 5.49855C0.785501 5.65328 0.815977 5.80649 0.875189 5.94944C0.934401 6.09239 1.02119 6.22228 1.1306 6.33169C1.24001 6.4411 1.36989 6.52788 1.51284 6.5871C1.65579 6.64631 1.80901 6.67678 1.96373 6.67678C2.11846 6.67678 2.27168 6.64631 2.41463 6.5871C2.55757 6.52788 2.68746 6.4411 2.79687 6.33169C2.90628 6.22228 2.99307 6.09239 3.05228 5.94944C3.11149 5.80649 3.14197 5.65328 3.14197 5.49855C3.14197 5.18606 3.01783 4.88637 2.79687 4.66541C2.57591 4.44445 2.27622 4.32032 1.96373 4.32032C1.65125 4.32032 1.35156 4.44445 1.1306 4.66541C0.909636 4.88637 0.785501 5.18606 0.785501 5.49855Z" fill="white"/>
</svg>
