<svg width="51" height="48" viewBox="0 0 51 48" fill="none" xmlns="http://www.w3.org/2000/svg">
<path fill-rule="evenodd" clip-rule="evenodd" d="M14.0441 4.27763C17.23 1.53043 21.2933 0.0131915 25.5 0C34.0744 0 41.1921 6.375 41.9666 14.5956C47.0411 15.3127 51 19.5617 51 24.7764C51 30.5012 46.2251 35.0625 40.4398 35.0625H31.875C31.4523 35.0625 31.0469 34.8946 30.748 34.5957C30.4492 34.2968 30.2812 33.8914 30.2812 33.4688C30.2812 33.0461 30.4492 32.6407 30.748 32.3418C31.0469 32.0429 31.4523 31.875 31.875 31.875H40.443C44.5581 31.875 47.8125 28.6492 47.8125 24.7764C47.8125 20.9004 44.5613 17.6747 40.4398 17.6747H38.8461V16.0809C38.8493 9.00469 32.9205 3.1875 25.5 3.1875C22.0571 3.20125 18.7324 4.44476 16.1256 6.69375C13.7126 8.772 12.4504 11.2774 12.4504 13.2441V14.6721L11.0319 14.8282C6.579 15.3159 3.1875 18.972 3.1875 23.3261C3.1875 28.0022 7.10812 31.875 12.0519 31.875H19.125C19.5477 31.875 19.9531 32.0429 20.252 32.3418C20.5508 32.6407 20.7188 33.0461 20.7188 33.4688C20.7188 33.8914 20.5508 34.2968 20.252 34.5957C19.9531 34.8946 19.5477 35.0625 19.125 35.0625H12.0519C5.44425 35.0625 0 29.8541 0 23.3261C0 17.7066 4.03537 13.0528 9.37762 11.8734C9.83344 9.12262 11.6025 6.38138 14.0441 4.27763V4.27763Z" fill="#070F20"/>
<path fill-rule="evenodd" clip-rule="evenodd" d="M24.3717 13.2163C24.5197 13.0679 24.6956 12.9501 24.8892 12.8697C25.0829 12.7894 25.2904 12.748 25.5001 12.748C25.7097 12.748 25.9173 12.7894 26.1109 12.8697C26.3045 12.9501 26.4804 13.0679 26.6284 13.2163L36.1909 22.7788C36.4902 23.078 36.6583 23.4839 36.6583 23.9071C36.6583 24.3304 36.4902 24.7363 36.1909 25.0355C35.8917 25.3348 35.4858 25.5029 35.0626 25.5029C34.6393 25.5029 34.2334 25.3348 33.9342 25.0355L27.0938 18.192V46.2196C27.0938 46.6423 26.9259 47.0477 26.627 47.3466C26.3281 47.6455 25.9227 47.8134 25.5001 47.8134C25.0774 47.8134 24.672 47.6455 24.3731 47.3466C24.0742 47.0477 23.9063 46.6423 23.9063 46.2196V18.192L17.0659 25.0355C16.7667 25.3348 16.3608 25.5029 15.9376 25.5029C15.5143 25.5029 15.1084 25.3348 14.8092 25.0355C14.5099 24.7363 14.3418 24.3304 14.3418 23.9071C14.3418 23.4839 14.5099 23.078 14.8092 22.7788L24.3717 13.2163Z" fill="#070F20"/>
</svg>
