<svg width="32" height="32" viewBox="0 0 32 32" fill="none" xmlns="http://www.w3.org/2000/svg">
<path fill-rule="evenodd" clip-rule="evenodd" d="M11.2058 23.4766C15.7692 22.81 18.9112 22.8673 23.4805 23.5C23.8114 23.5479 24.1138 23.714 24.3318 23.9676C24.5498 24.2211 24.6687 24.5449 24.6665 24.8793C24.6665 25.1993 24.5565 25.51 24.3578 25.7526C24.0116 26.1757 23.6568 26.5918 23.2938 27.0006H25.0545C25.1652 26.8686 25.2765 26.734 25.3892 26.5973C25.7846 26.1124 26.0003 25.5057 25.9998 24.88C25.9998 23.53 25.0145 22.3666 23.6632 22.18C18.9858 21.5326 15.7165 21.4706 11.0132 22.158C9.64784 22.3573 8.6665 23.5386 8.6665 24.898C8.6665 25.5013 8.86317 26.098 9.23584 26.5813C9.34584 26.724 9.4545 26.864 9.5625 27.0013H11.2805C10.9428 26.597 10.6134 26.1858 10.2925 25.768C10.1018 25.5179 9.99894 25.2118 9.99984 24.8973C9.99984 24.1793 10.5158 23.5773 11.2058 23.4766Z" fill="#E7E7E7"/>
<path fill-rule="evenodd" clip-rule="evenodd" d="M17.3333 16.9993C17.8586 16.9994 18.3788 16.8959 18.8641 16.6949C19.3494 16.4938 19.7903 16.1992 20.1618 15.8278C20.5332 15.4563 20.8278 15.0154 21.0289 14.5301C21.2299 14.0448 21.3333 13.5246 21.3333 12.9993C21.3333 12.4741 21.2299 11.9539 21.0289 11.4686C20.8278 10.9833 20.5332 10.5424 20.1618 10.1709C19.7903 9.79949 19.3494 9.50485 18.8641 9.30383C18.3788 9.10281 17.8586 8.99935 17.3333 8.99935C16.2725 8.99935 15.2551 9.42078 14.5049 10.1709C13.7548 10.9211 13.3333 11.9385 13.3333 12.9993C13.3333 14.0602 13.7548 15.0776 14.5049 15.8278C15.2551 16.5779 16.2725 16.9993 17.3333 16.9993ZM17.3333 18.3327C18.7478 18.3327 20.1044 17.7708 21.1046 16.7706C22.1048 15.7704 22.6667 14.4138 22.6667 12.9993C22.6667 11.5849 22.1048 10.2283 21.1046 9.22811C20.1044 8.22792 18.7478 7.66602 17.3333 7.66602C15.9188 7.66602 14.5623 8.22792 13.5621 9.22811C12.5619 10.2283 12 11.5849 12 12.9993C12 14.4138 12.5619 15.7704 13.5621 16.7706C14.5623 17.7708 15.9188 18.3327 17.3333 18.3327Z" fill="#E7E7E7"/>
</svg>
