<svg width="23" height="23" viewBox="0 0 23 23" fill="none" xmlns="http://www.w3.org/2000/svg">
<path d="M18.6873 6.70833H17.2498V5.75C17.2491 4.98774 16.9459 4.25691 16.4069 3.71791C15.8679 3.17891 15.1371 2.87576 14.3748 2.875H4.31234C3.67708 2.87551 3.06798 3.12809 2.61879 3.57728C2.16959 4.02648 1.91701 4.63557 1.9165 5.27083V17.25C1.91727 18.0123 2.22041 18.7431 2.75941 19.2821C3.29841 19.8211 4.02924 20.1242 4.7915 20.125H18.6873C19.3226 20.1245 19.9317 19.8719 20.3809 19.4227C20.8301 18.9735 21.0827 18.3644 21.0832 17.7292V9.10417C21.0827 8.46891 20.8301 7.85981 20.3809 7.41062C19.9317 6.96142 19.3226 6.70884 18.6873 6.70833V6.70833ZM4.31234 3.83333H14.3748C14.8829 3.83409 15.37 4.03627 15.7293 4.39555C16.0886 4.75483 16.2907 5.2419 16.2915 5.75V6.70833H4.31234C4.12356 6.70833 3.93664 6.67115 3.76223 6.59891C3.58782 6.52667 3.42936 6.42078 3.29587 6.2873C3.16239 6.15382 3.0565 5.99535 2.98426 5.82094C2.91202 5.64654 2.87484 5.45961 2.87484 5.27083C2.87484 5.08206 2.91202 4.89513 2.98426 4.72073C3.0565 4.54632 3.16239 4.38785 3.29587 4.25437C3.42936 4.12088 3.58782 4.015 3.76223 3.94276C3.93664 3.87052 4.12356 3.83333 4.31234 3.83333V3.83333ZM20.1248 15.3333H18.2082C17.6998 15.3333 17.2123 15.1314 16.8529 14.772C16.4934 14.4125 16.2915 13.925 16.2915 13.4167C16.2915 12.9083 16.4934 12.4208 16.8529 12.0614C17.2123 11.7019 17.6998 11.5 18.2082 11.5H20.1248V15.3333ZM20.1248 10.5417H18.2082C17.8306 10.5417 17.4568 10.616 17.108 10.7605C16.7591 10.905 16.4422 11.1168 16.1752 11.3837C15.9083 11.6507 15.6965 11.9676 15.552 12.3165C15.4075 12.6653 15.3332 13.0391 15.3332 13.4167C15.3332 13.7942 15.4075 14.1681 15.552 14.5169C15.6965 14.8657 15.9083 15.1826 16.1752 15.4496C16.4422 15.7166 16.7591 15.9283 17.108 16.0728C17.4568 16.2173 17.8306 16.2917 18.2082 16.2917H20.1248V17.7292C20.1248 18.5227 19.4808 19.1667 18.6873 19.1667H4.7915C4.28341 19.1659 3.79634 18.9637 3.43706 18.6044C3.07778 18.2452 2.8756 17.7581 2.87484 17.25V7.18654C3.28884 7.49896 3.79388 7.66762 4.31234 7.66667H18.6873C19.4808 7.66667 20.1248 8.31067 20.1248 9.10417V10.5417Z" fill="#E7E7E7"/>
</svg>
