<svg width="19" height="19" viewBox="0 0 19 19" fill="none" xmlns="http://www.w3.org/2000/svg">
<path d="M11.0833 9.49935L8.3125 11.0827V7.91602L11.0833 9.49935Z" fill="#D0D0D0" stroke="#D0D0D0" stroke-width="1.5" stroke-linecap="round" stroke-linejoin="round"/>
<path d="M1.5835 10.0594V8.93924C1.5835 6.64736 1.5835 5.50103 2.29995 4.76399C3.0172 4.02616 4.14612 3.99449 6.40316 3.93036C7.47191 3.90028 8.56441 3.87891 9.50016 3.87891C10.4351 3.87891 11.5276 3.90028 12.5972 3.93036C14.8542 3.99449 15.9831 4.02616 16.6996 4.76399C17.4168 5.50103 17.4168 6.64816 17.4168 8.93924V10.0594C17.4168 12.3521 17.4168 13.4977 16.7004 14.2355C15.9831 14.9725 14.855 15.005 12.5972 15.0683C11.5284 15.0992 10.4359 15.1206 9.50016 15.1206C8.56521 15.1206 7.47271 15.0992 6.40316 15.0683C4.14612 15.005 3.0172 14.9733 2.29995 14.2355C1.5835 13.4977 1.5835 12.3513 1.5835 10.0602V10.0594Z" stroke="#D0D0D0" stroke-width="1.2"/>
</svg>
